<?xml version="1.0" encoding="UTF-8" standalone="no"?>
<!-- Created with Inkscape (http://www.inkscape.org/) -->

<svg
   xmlns:dc="http://purl.org/dc/elements/1.1/"
   xmlns:cc="http://creativecommons.org/ns#"
   xmlns:rdf="http://www.w3.org/1999/02/22-rdf-syntax-ns#"
   xmlns:svg="http://www.w3.org/2000/svg"
   xmlns="http://www.w3.org/2000/svg"
   xmlns:sodipodi="http://sodipodi.sourceforge.net/DTD/sodipodi-0.dtd"
   xmlns:inkscape="http://www.inkscape.org/namespaces/inkscape"
   width="250mm"
   height="160mm"
   viewBox="0 0 250 160"
   version="1.1"
   id="svg4549"
   inkscape:version="0.92.2 (5c3e80d, 2017-08-06)"
   sodipodi:docname="css3.svg">
  <defs
     id="defs4543" />
  <sodipodi:namedview
     id="base"
     pagecolor="#ffffff"
     bordercolor="#666666"
     borderopacity="1.0"
     inkscape:pageopacity="0.0"
     inkscape:pageshadow="2"
     inkscape:zoom="0.35"
     inkscape:cx="-64.285714"
     inkscape:cy="560"
     inkscape:document-units="mm"
     inkscape:current-layer="layer1"
     showgrid="false"
     inkscape:window-width="1920"
     inkscape:window-height="1018"
     inkscape:window-x="-8"
     inkscape:window-y="-8"
     inkscape:window-maximized="1" />
  <metadata
     id="metadata4546">
    <rdf:RDF>
      <cc:Work
         rdf:about="">
        <dc:format>image/svg+xml</dc:format>
        <dc:type
           rdf:resource="http://purl.org/dc/dcmitype/StillImage" />
        <dc:title></dc:title>
      </cc:Work>
    </rdf:RDF>
  </metadata>
  <g
     inkscape:label="Layer 1"
     inkscape:groupmode="layer"
     id="layer1"
     transform="translate(0,-137)">
    <g
       id="g4541"
       transform="matrix(5.0969337,0,0,4.6113093,44.310031,141.57619)">
      <g
         id="g4510">
        <polygon
           id="polygon4504"
           points="4.625,28.889 2,0 30.002,0 27.377,28.889 16.001,32 "
           style="fill:#1f62ae" />
        <polygon
           id="polygon4506"
           points="25.232,27.008 27.688,2 16,2 16,29.75 "
           style="fill:#347dc6" />
        <polygon
           id="polygon4508"
           points="19.502,17 19.158,21 16,21.99 12.861,20.984 12.533,19 8.803,19 9.262,23.987 16,25.99 22.728,23.986 23.719,12.99 16.026,12.99 24,10 24.363,6 7.607,6 8,10 16,10 8.25,12.99 8.619,17 "
           style="fill:#ffffff" />
      </g>
      <g
         id="g4512" />
      <g
         id="g4514" />
      <g
         id="g4516" />
      <g
         id="g4518" />
      <g
         id="g4520" />
      <g
         id="g4522" />
    </g>
  </g>
</svg>
