<?xml version="1.0" encoding="UTF-8" standalone="no"?>
<!-- Created with Inkscape (http://www.inkscape.org/) -->

<svg
   xmlns:dc="http://purl.org/dc/elements/1.1/"
   xmlns:cc="http://creativecommons.org/ns#"
   xmlns:rdf="http://www.w3.org/1999/02/22-rdf-syntax-ns#"
   xmlns:svg="http://www.w3.org/2000/svg"
   xmlns="http://www.w3.org/2000/svg"
   xmlns:sodipodi="http://sodipodi.sourceforge.net/DTD/sodipodi-0.dtd"
   xmlns:inkscape="http://www.inkscape.org/namespaces/inkscape"
   width="250mm"
   height="160mm"
   viewBox="0 0 250 160"
   version="1.1"
   id="svg4549"
   inkscape:version="0.92.2 (5c3e80d, 2017-08-06)"
   sodipodi:docname="html.svg">
  <defs
     id="defs4543" />
  <sodipodi:namedview
     id="base"
     pagecolor="#ffffff"
     bordercolor="#666666"
     borderopacity="1.0"
     inkscape:pageopacity="0.0"
     inkscape:pageshadow="2"
     inkscape:zoom="0.35"
     inkscape:cx="-528.57143"
     inkscape:cy="560"
     inkscape:document-units="mm"
     inkscape:current-layer="layer1"
     showgrid="false"
     inkscape:window-width="1920"
     inkscape:window-height="1018"
     inkscape:window-x="-8"
     inkscape:window-y="-8"
     inkscape:window-maximized="1" />
  <metadata
     id="metadata4546">
    <rdf:RDF>
      <cc:Work
         rdf:about="">
        <dc:format>image/svg+xml</dc:format>
        <dc:type
           rdf:resource="http://purl.org/dc/dcmitype/StillImage" />
        <dc:title></dc:title>
      </cc:Work>
    </rdf:RDF>
  </metadata>
  <g
     inkscape:label="Layer 1"
     inkscape:groupmode="layer"
     id="layer1"
     transform="translate(0,-137)">
    <g
       transform="matrix(0.09026747,0,0,0.08281337,35.175101,133.43737)"
       id="Logo_artwork" />
    <g
       transform="matrix(0.09026747,0,0,0.08281337,35.5935,132.98379)"
       id="Guides_to_delete">
      <g
         id="g5719">
        <polygon
           style="fill:#e34e26"
           points="1647.093,1718.528 999.615,1898.016 352.732,1718.4 208.627,101.984 1791.373,101.984 "
           id="polygon5707" />
        <polygon
           style="fill:#ef662a"
           points="1646.918,234.108 1000,234.108 1000,1760.716 1523.565,1615.585 "
           id="polygon5709" />
        <polygon
           style="fill:#ffffff"
           points="764.155,1124.017 565.155,1124.017 593.611,1442.302 999.697,1555.086 1406.296,1442.302 1460.806,833.669 738.229,833.669 720.086,630.648 1478.168,630.648 1478.773,630.648 1496.532,432.378 503.468,432.378 556.906,1031.897 1244.048,1031.897 1220.988,1289.041 999.744,1348.857 778.919,1289.128 "
           id="polygon5711" />
        <g
           id="g5717">
          <polygon
             style="fill:#ebebeb"
             points="1000,630.648 1000,432.378 503.468,432.378 556.906,1031.897 1000,1031.897 1000,833.669 738.229,833.669 720.086,630.648 "
             id="polygon5713" />
          <polygon
             style="fill:#ebebeb"
             points="1000,1555.001 1000,1348.771 999.744,1348.857 778.919,1289.128 764.155,1124.017 565.155,1124.017 593.611,1442.302 999.697,1555.086 "
             id="polygon5715" />
        </g>
      </g>
    </g>
  </g>
</svg>
